<?xml version="1.0" encoding="UTF-8"?>
<svg version="1.1" xmlns="http://www.w3.org/2000/svg" width="120" height="120" viewBox="0 0 120 120">
<path d="M0 0 C3.3 0 6.6 0 10 0 C10 1.98 10 3.96 10 6 C12.64 6.33 15.28 6.66 18 7 C18 9.31 18 11.62 18 14 C20.64 14.33 23.28 14.66 26 15 C26 17.31 26 19.62 26 22 C28.64 22.33 31.28 22.66 34 23 C34 25.64 34 28.28 34 31 C36.64 31 39.28 31 42 31 C42 33.31 42 35.62 42 38 C44.64 38.33 47.28 38.66 50 39 C50 41.31 50 43.62 50 46 C52.64 46.33 55.28 46.66 58 47 C58 49.31 58 51.62 58 54 C60.31 54.33 62.62 54.66 65 55 C65 58.3 65 61.6 65 65 C61.535 65.495 61.535 65.495 58 66 C58 68.31 58 70.62 58 73 C55.36 73.33 52.72 73.66 50 74 C50 76.31 50 78.62 50 81 C47.36 81.33 44.72 81.66 42 82 C42 84.31 42 86.62 42 89 C39.03 89 36.06 89 33 89 C33 86.36 33 83.72 33 81 C30.03 81 27.06 81 24 81 C24 78.69 24 76.38 24 74 C21.36 73.67 18.72 73.34 16 73 C16 70.69 16 68.38 16 66 C14.02 66 12.04 66 10 66 C10 68.31 10 70.62 10 73 C7.36 73.33 4.72 73.66 2 74 C2 76.31 2 78.62 2 81 C-0.64 81.33 -3.28 81.66 -6 82 C-6 84.31 -6 86.62 -6 89 C-8.64 89.33 -11.28 89.66 -14 90 C-14 92.31 -14 94.62 -14 97 C-16.64 97.33 -19.28 97.66 -22 98 C-22 100.31 -22 102.62 -22 105 C-24.64 105.33 -27.28 105.66 -30 106 C-30 108.31 -30 110.62 -30 113 C-32.64 113.33 -35.28 113.66 -38 114 C-38 115.98 -38 117.96 -38 120 C-43.61 120 -49.22 120 -55 120 C-55 114.39 -55 108.78 -55 103 C-51.535 102.505 -51.535 102.505 -48 102 C-48 99.69 -48 97.38 -48 95 C-45.36 94.67 -42.72 94.34 -40 94 C-40 92.02 -40 90.04 -40 88 C-37.03 88 -34.06 88 -31 88 C-31.495 87.01 -31.495 87.01 -32 86 C-32.04022391 83.6670134 -32.04320247 81.33293334 -32 79 C-29.36 78.67 -26.72 78.34 -24 78 C-24 75.69 -24 73.38 -24 71 C-21.36 70.67 -18.72 70.34 -16 70 C-16 67.69 -16 65.38 -16 63 C-13.36 62.67 -10.72 62.34 -8 62 C-8 59.69 -8 57.38 -8 55 C-5.36 54.67 -2.72 54.34 0 54 C0 52.68 0 51.36 0 50 C-2.64 49.67 -5.28 49.34 -8 49 C-8 46.69 -8 44.38 -8 42 C-10.64 41.67 -13.28 41.34 -16 41 C-16 38.69 -16 36.38 -16 34 C-18.64 33.67 -21.28 33.34 -24 33 C-24 29.7 -24 26.4 -24 23 C-20.04 22.505 -20.04 22.505 -16 22 C-16 19.69 -16 17.38 -16 15 C-13.36 14.67 -10.72 14.34 -8 14 C-8 11.69 -8 9.38 -8 7 C-5.36 6.67 -2.72 6.34 0 6 C0 4.02 0 2.04 0 0 Z " fill="#FFFFFF" transform="translate(55,0)"/>
<path d="M0 0 C2.64 0 5.28 0 8 0 C8 2.64 8 5.28 8 8 C10.64 8 13.28 8 16 8 C16 10.64 16 13.28 16 16 C18.64 16 21.28 16 24 16 C24 18.64 24 21.28 24 24 C26.64 24 29.28 24 32 24 C32 26.64 32 29.28 32 32 C34.64 32 37.28 32 40 32 C40 34.64 40 37.28 40 40 C42.64 40 45.28 40 48 40 C48 42.64 48 45.28 48 48 C50.64 48 53.28 48 56 48 C56 50.64 56 53.28 56 56 C53.36 56 50.72 56 48 56 C48 58.64 48 61.28 48 64 C45.36 64 42.72 64 40 64 C40 66.64 40 69.28 40 72 C37.36 72 34.72 72 32 72 C32 69.36 32 66.72 32 64 C29.36 64 26.72 64 24 64 C24 61.36 24 58.72 24 56 C21.36 56 18.72 56 16 56 C16 53.36 16 50.72 16 48 C13.36 48 10.72 48 8 48 C8 45.36 8 42.72 8 40 C5.36 40 2.72 40 0 40 C0 37.36 0 34.72 0 32 C-2.64 32 -5.28 32 -8 32 C-8 29.36 -8 26.72 -8 24 C-10.64 24 -13.28 24 -16 24 C-16 21.36 -16 18.72 -16 16 C-13.36 16 -10.72 16 -8 16 C-8 13.36 -8 10.72 -8 8 C-5.36 8 -2.72 8 0 8 C0 5.36 0 2.72 0 0 Z " fill="#FFFFFF" transform="translate(56,8)"/>
<path d="M0 0 C2.64 0 5.28 0 8 0 C8.36116046 1.4774746 8.71375048 2.95704675 9.0625 4.4375 C9.25972656 5.26121094 9.45695312 6.08492187 9.66015625 6.93359375 C9.82837891 7.95646484 9.82837891 7.95646484 10 9 C9.67 9.33 9.34 9.66 9 10 C8.95907063 12.33297433 8.95758277 14.66705225 9 17 C5.04 17.495 5.04 17.495 1 18 C1 20.31 1 22.62 1 25 C-2.96 25.495 -2.96 25.495 -7 26 C-7 28.31 -7 30.62 -7 33 C-9.64 33.33 -12.28 33.66 -15 34 C-15 36.31 -15 38.62 -15 41 C-17.64 41.33 -20.28 41.66 -23 42 C-23 44.31 -23 46.62 -23 49 C-25.64 49.33 -28.28 49.66 -31 50 C-31 52.31 -31 54.62 -31 57 C-33.64 57.33 -36.28 57.66 -39 58 C-39 59.98 -39 61.96 -39 64 C-44.61 64 -50.22 64 -56 64 C-56 58.39 -56 52.78 -56 47 C-52.535 46.505 -52.535 46.505 -49 46 C-49 43.69 -49 41.38 -49 39 C-46.36 38.67 -43.72 38.34 -41 38 C-41 36.02 -41 34.04 -41 32 C-35.39 32 -29.78 32 -24 32 C-24 29.36 -24 26.72 -24 24 C-21.36 24 -18.72 24 -16 24 C-16 21.36 -16 18.72 -16 16 C-13.36 16 -10.72 16 -8 16 C-8 13.36 -8 10.72 -8 8 C-5.36 8 -2.72 8 0 8 C0 5.36 0 2.72 0 0 Z " fill="#FFFFFF" transform="translate(56,56)"/>
<path d="M0 0 C7.92 0 15.84 0 24 0 C24 2.64 24 5.28 24 8 C26.64 8 29.28 8 32 8 C32 10.64 32 13.28 32 16 C34.64 16 37.28 16 40 16 C40 18.64 40 21.28 40 24 C37.36 24 34.72 24 32 24 C32 26.64 32 29.28 32 32 C29.36 32 26.72 32 24 32 C24 34.64 24 37.28 24 40 C21.36 40 18.72 40 16 40 C16 37.36 16 34.72 16 32 C13.36 32 10.72 32 8 32 C8 29.36 8 26.72 8 24 C5.36 24 2.72 24 0 24 C0 16.08 0 8.16 0 0 Z " fill="#FFFFFF" transform="translate(72,40)"/>
<path d="M0 0 C2.64 0 5.28 0 8 0 C8.36116046 1.4774746 8.71375048 2.95704675 9.0625 4.4375 C9.35833984 5.67306641 9.35833984 5.67306641 9.66015625 6.93359375 C9.77230469 7.61550781 9.88445312 8.29742187 10 9 C9.67 9.33 9.34 9.66 9 10 C8.95907063 12.33297433 8.95758277 14.66705225 9 17 C5.04 17.495 5.04 17.495 1 18 C1 20.31 1 22.62 1 25 C-2.96 25.495 -2.96 25.495 -7 26 C-7 28.31 -7 30.62 -7 33 C-12.61 33 -18.22 33 -24 33 C-24 35.31 -24 37.62 -24 40 C-26.64 40 -29.28 40 -32 40 C-32 37.36 -32 34.72 -32 32 C-29.36 32 -26.72 32 -24 32 C-24 29.36 -24 26.72 -24 24 C-21.36 24 -18.72 24 -16 24 C-16 21.36 -16 18.72 -16 16 C-13.36 16 -10.72 16 -8 16 C-8 13.36 -8 10.72 -8 8 C-5.36 8 -2.72 8 0 8 C0 5.36 0 2.72 0 0 Z " fill="#FFFFFF" transform="translate(56,56)"/>
<path d="M0 0 C2.97 0 5.94 0 9 0 C9 2.64 9 5.28 9 8 C6.36 8 3.72 8 1 8 C1 10.64 1 13.28 1 16 C-1.64 16 -4.28 16 -7 16 C-7 18.97 -7 21.94 -7 25 C-5.700625 24.979375 -4.40125 24.95875 -3.0625 24.9375 C-1.70834367 24.91600546 -0.35243917 24.92851801 1 25 C2 26 2 26 2 32 C-3.61 32 -9.22 32 -15 32 C-15 26.39 -15 20.78 -15 15 C-11.535 14.505 -11.535 14.505 -8 14 C-8 11.69 -8 9.38 -8 7 C-5.36 6.67 -2.72 6.34 0 6 C0 4.02 0 2.04 0 0 Z " fill="#FFFFFF" transform="translate(15,88)"/>
<path d="M0 0 C7.92 0 15.84 0 24 0 C24 2.64 24 5.28 24 8 C21.36 8 18.72 8 16 8 C16 10.64 16 13.28 16 16 C10.72 16 5.44 16 0 16 C0 10.72 0 5.44 0 0 Z " fill="#FFFFFF" transform="translate(72,40)"/>
<path d="M0 0 C7.92 0 15.84 0 24 0 C24 2.64 24 5.28 24 8 C18.72 8 13.44 8 8 8 C8 13.28 8 18.56 8 24 C5.36 24 2.72 24 0 24 C0 16.08 0 8.16 0 0 Z " fill="#FFFFFF" transform="translate(64,32)"/>
<path d="M0 0 C2.64 0 5.28 0 8 0 C8 2.64 8 5.28 8 8 C10.64 8 13.28 8 16 8 C16 10.64 16 13.28 16 16 C8.08 16 0.16 16 -8 16 C-8 13.36 -8 10.72 -8 8 C-5.36 8 -2.72 8 0 8 C0 5.36 0 2.72 0 0 Z " fill="#FFFFFF" transform="translate(56,8)"/>
<path d="M0 0 C5.28 0 10.56 0 16 0 C16 5.28 16 10.56 16 16 C13.36 16 10.72 16 8 16 C8 13.36 8 10.72 8 8 C5.36 8 2.72 8 0 8 C0 5.36 0 2.72 0 0 Z " fill="#FFFFFF" transform="translate(72,56)"/>
<path d="M0 0 C6.15234375 -0.09765625 6.15234375 -0.09765625 8 0 C9 1 9 1 9.0625 4.5625 C9.041875 5.696875 9.02125 6.83125 9 8 C6.03 8 3.06 8 0 8 C0 5.36 0 2.72 0 0 Z " fill="#FFFFFF" transform="translate(32,89)"/>
<path d="M0 0 C2.64 0 5.28 0 8 0 C8 2.64 8 5.28 8 8 C5.36 8 2.72 8 0 8 C0 5.36 0 2.72 0 0 Z " fill="#FFFFFF" transform="translate(8,104)"/>
<path d="M0 0 C2.64 0 5.28 0 8 0 C8 2.64 8 5.28 8 8 C5.36 8 2.72 8 0 8 C0 5.36 0 2.72 0 0 Z " fill="#FFFFFF" transform="translate(16,96)"/>
<path d="M0 0 C2.64 0 5.28 0 8 0 C8 2.64 8 5.28 8 8 C5.36 8 2.72 8 0 8 C0 5.36 0 2.72 0 0 Z " fill="#FFFFFF" transform="translate(24,88)"/>
<path d="M0 0 C2.64 0 5.28 0 8 0 C8 2.64 8 5.28 8 8 C5.36 8 2.72 8 0 8 C0 5.36 0 2.72 0 0 Z " fill="#FFFFFF" transform="translate(32,80)"/>
<path d="M0 0 C2.64 0 5.28 0 8 0 C8 2.64 8 5.28 8 8 C5.36 8 2.72 8 0 8 C0 5.36 0 2.72 0 0 Z " fill="#FFFFFF" transform="translate(40,72)"/>
<path d="M0 0 C2.64 0 5.28 0 8 0 C8 2.64 8 5.28 8 8 C5.36 8 2.72 8 0 8 C0 5.36 0 2.72 0 0 Z " fill="#FFFFFF" transform="translate(88,72)"/>
<path d="M0 0 C2.64 0 5.28 0 8 0 C8 2.64 8 5.28 8 8 C5.36 8 2.72 8 0 8 C0 5.36 0 2.72 0 0 Z " fill="#FFFFFF" transform="translate(96,64)"/>
<path d="M0 0 C2.64 0 5.28 0 8 0 C8 2.64 8 5.28 8 8 C5.36 8 2.72 8 0 8 C0 5.36 0 2.72 0 0 Z " fill="#FFFFFF" transform="translate(48,64)"/>
<path d="M0 0 C2.64 0 5.28 0 8 0 C8 2.64 8 5.28 8 8 C5.36 8 2.72 8 0 8 C0 5.36 0 2.72 0 0 Z " fill="#FFFFFF" transform="translate(88,64)"/>
<path d="M0 0 C2.64 0 5.28 0 8 0 C8 2.64 8 5.28 8 8 C5.36 8 2.72 8 0 8 C0 5.36 0 2.72 0 0 Z " fill="#FFFFFF" transform="translate(80,64)"/>
<path d="M0 0 C2.64 0 5.28 0 8 0 C8 2.64 8 5.28 8 8 C5.36 8 2.72 8 0 8 C0 5.36 0 2.72 0 0 Z " fill="#FFFFFF" transform="translate(56,56)"/>
<path d="M0 0 C2.64 0 5.28 0 8 0 C8 2.64 8 5.28 8 8 C5.36 8 2.72 8 0 8 C0 5.36 0 2.72 0 0 Z " fill="#FFFFFF" transform="translate(104,56)"/>
<path d="M0 0 C2.64 0 5.28 0 8 0 C8 2.64 8 5.28 8 8 C5.36 8 2.72 8 0 8 C0 5.36 0 2.72 0 0 Z " fill="#FFFFFF" transform="translate(96,56)"/>
<path d="M0 0 C2.64 0 5.28 0 8 0 C8 2.64 8 5.28 8 8 C5.36 8 2.72 8 0 8 C0 5.36 0 2.72 0 0 Z " fill="#FFFFFF" transform="translate(72,56)"/>
<path d="M0 0 C2.64 0 5.28 0 8 0 C8 2.64 8 5.28 8 8 C5.36 8 2.72 8 0 8 C0 5.36 0 2.72 0 0 Z " fill="#FFFFFF" transform="translate(96,48)"/>
<path d="M0 0 C2.64 0 5.28 0 8 0 C8 2.64 8 5.28 8 8 C5.36 8 2.72 8 0 8 C0 5.36 0 2.72 0 0 Z " fill="#FFFFFF" transform="translate(88,48)"/>
<path d="M0 0 C2.64 0 5.28 0 8 0 C8 2.64 8 5.28 8 8 C5.36 8 2.72 8 0 8 C0 5.36 0 2.72 0 0 Z " fill="#FFFFFF" transform="translate(64,48)"/>
<path d="M0 0 C2.64 0 5.28 0 8 0 C8 2.64 8 5.28 8 8 C5.36 8 2.72 8 0 8 C0 5.36 0 2.72 0 0 Z " fill="#FFFFFF" transform="translate(88,40)"/>
<path d="M0 0 C2.64 0 5.28 0 8 0 C8 2.64 8 5.28 8 8 C5.36 8 2.72 8 0 8 C0 5.36 0 2.72 0 0 Z " fill="#FFFFFF" transform="translate(80,40)"/>
<path d="M0 0 C2.64 0 5.28 0 8 0 C8 2.64 8 5.28 8 8 C5.36 8 2.72 8 0 8 C0 5.36 0 2.72 0 0 Z " fill="#FFFFFF" transform="translate(72,40)"/>
<path d="M0 0 C2.64 0 5.28 0 8 0 C8 2.64 8 5.28 8 8 C5.36 8 2.72 8 0 8 C0 5.36 0 2.72 0 0 Z " fill="#FFFFFF" transform="translate(56,40)"/>
<path d="M0 0 C2.64 0 5.28 0 8 0 C8 2.64 8 5.28 8 8 C5.36 8 2.72 8 0 8 C0 5.36 0 2.72 0 0 Z " fill="#FFFFFF" transform="translate(80,32)"/>
<path d="M0 0 C2.64 0 5.28 0 8 0 C8 2.64 8 5.28 8 8 C5.36 8 2.72 8 0 8 C0 5.36 0 2.72 0 0 Z " fill="#FFFFFF" transform="translate(64,32)"/>
<path d="M0 0 C2.64 0 5.28 0 8 0 C8 2.64 8 5.28 8 8 C5.36 8 2.72 8 0 8 C0 5.36 0 2.72 0 0 Z " fill="#FFFFFF" transform="translate(56,32)"/>
<path d="M0 0 C2.64 0 5.28 0 8 0 C8 2.64 8 5.28 8 8 C5.36 8 2.72 8 0 8 C0 5.36 0 2.72 0 0 Z " fill="#FFFFFF" transform="translate(48,32)"/>
<path d="M0 0 C2.64 0 5.28 0 8 0 C8 2.64 8 5.28 8 8 C5.36 8 2.72 8 0 8 C0 5.36 0 2.72 0 0 Z " fill="#FFFFFF" transform="translate(72,24)"/>
<path d="M0 0 C2.64 0 5.28 0 8 0 C8 2.64 8 5.28 8 8 C5.36 8 2.72 8 0 8 C0 5.36 0 2.72 0 0 Z " fill="#FFFFFF" transform="translate(40,24)"/>
<path d="M0 0 C2.64 0 5.28 0 8 0 C8 2.64 8 5.28 8 8 C5.36 8 2.72 8 0 8 C0 5.36 0 2.72 0 0 Z " fill="#FFFFFF" transform="translate(64,24)"/>
<path d="M0 0 C2.64 0 5.28 0 8 0 C8 2.64 8 5.28 8 8 C5.36 8 2.72 8 0 8 C0 5.36 0 2.72 0 0 Z " fill="#FFFFFF" transform="translate(48,24)"/>
<path d="M0 0 C2.64 0 5.28 0 8 0 C8 2.64 8 5.28 8 8 C5.36 8 2.72 8 0 8 C0 5.36 0 2.72 0 0 Z " fill="#FFFFFF" transform="translate(64,16)"/>
<path d="M0 0 C2.64 0 5.28 0 8 0 C8 2.64 8 5.28 8 8 C5.36 8 2.72 8 0 8 C0 5.36 0 2.72 0 0 Z " fill="#FFFFFF" transform="translate(48,16)"/>
<path d="M0 0 C2.64 0 5.28 0 8 0 C8 2.64 8 5.28 8 8 C5.36 8 2.72 8 0 8 C0 5.36 0 2.72 0 0 Z " fill="#FFFFFF" transform="translate(56,8)"/>
<path d="M0 0 C2.64 0 5.28 0 8 0 C7.67 2.64 7.34 5.28 7 8 C6.67 8 6.34 8 6 8 C6 6.02 6 4.04 6 2 C4.68 2 3.36 2 2 2 C2 3.98 2 5.96 2 8 C1.67 8 1.34 8 1 8 C0.67 5.36 0.34 2.72 0 0 Z " fill="#FFFFFF" transform="translate(64,56)"/>
</svg>
